<svg xmlns="http://www.w3.org/2000/svg"
     viewBox="0 0 290 262"
     role="img"
     aria-labelledby="title desc"
     shape-rendering="crispEdges">
  <title id="title">Pixel art torii A logo</title>
  <desc id="desc">A transparent pixel art torii gate logo with a subtle capital A silhouette.</desc>
  <g id="torii-a-logo" shape-rendering="crispEdges">
  <g id="red-structure" fill="#ee1f1c">
    <rect x="20" y="20" width="18" height="1" />
    <rect x="252" y="20" width="18" height="1" />
    <rect x="20" y="21" width="1" height="2" />
    <rect x="37" y="21" width="1" height="9" />
    <rect x="252" y="21" width="1" height="9" />
    <rect x="269" y="21" width="1" height="1" />
    <rect x="269" y="27" width="1" height="2" />
    <rect x="37" y="30" width="11" height="1" />
    <rect x="242" y="30" width="11" height="1" />
    <rect x="47" y="31" width="1" height="8" />
    <rect x="242" y="31" width="1" height="3" />
    <rect x="269" y="36" width="1" height="2" />
    <rect x="242" y="37" width="1" height="1" />
    <rect x="20" y="38" width="8" height="1" />
    <rect x="262" y="38" width="8" height="1" />
    <rect x="28" y="39" width="1" height="9" />
    <rect x="48" y="39" width="194" height="1" />
    <rect x="261" y="39" width="1" height="9" />
    <rect x="33" y="48" width="5" height="1" />
    <rect x="252" y="48" width="2" height="1" />
    <rect x="257" y="48" width="2" height="1" />
    <rect x="37" y="49" width="1" height="8" />
    <rect x="252" y="49" width="1" height="8" />
    <rect x="37" y="57" width="215" height="1" />
    <rect x="46" y="58" width="198" height="12" />
    <rect x="46" y="70" width="85" height="6" />
    <rect x="159" y="70" width="85" height="6" />
    <rect x="47" y="76" width="84" height="1" />
    <rect x="159" y="76" width="84" height="1" />
    <rect x="72" y="77" width="36" height="7" />
    <rect x="130" y="77" width="1" height="24" />
    <rect x="159" y="77" width="1" height="1" />
    <rect x="182" y="77" width="36" height="7" />
    <rect x="159" y="80" width="1" height="19" />
    <rect x="73" y="84" width="35" height="1" />
    <rect x="182" y="84" width="35" height="1" />
    <rect x="78" y="85" width="24" height="13" />
    <rect x="188" y="85" width="24" height="4" />
    <rect x="188" y="89" width="23" height="3" />
    <rect x="188" y="92" width="24" height="6" />
    <rect x="76" y="98" width="26" height="3" />
    <rect x="188" y="98" width="26" height="3" />
    <rect x="159" y="100" width="1" height="1" />
    <rect x="53" y="101" width="78" height="2" />
    <rect x="159" y="101" width="78" height="1" />
    <rect x="159" y="102" width="79" height="1" />
    <rect x="52" y="103" width="79" height="2" />
    <rect x="159" y="103" width="78" height="4" />
    <rect x="53" y="105" width="78" height="6" />
    <rect x="159" y="107" width="79" height="2" />
    <rect x="159" y="109" width="78" height="2" />
    <rect x="60" y="111" width="71" height="2" />
    <rect x="159" y="111" width="71" height="2" />
    <rect x="60" y="113" width="170" height="7" />
    <rect x="76" y="120" width="27" height="1" />
    <rect x="155" y="120" width="2" height="1" />
    <rect x="187" y="120" width="27" height="1" />
    <rect x="226" y="120" width="1" height="1" />
    <rect x="76" y="121" width="26" height="10" />
    <rect x="188" y="121" width="26" height="10" />
    <rect x="73" y="131" width="29" height="7" />
    <rect x="188" y="131" width="29" height="7" />
    <rect x="73" y="138" width="28" height="1" />
    <rect x="191" y="138" width="26" height="13" />
    <rect x="73" y="139" width="26" height="12" />
    <rect x="71" y="151" width="148" height="1" />
    <rect x="70" y="152" width="150" height="19" />
    <rect x="70" y="171" width="26" height="2" />
    <rect x="194" y="171" width="26" height="2" />
    <rect x="68" y="173" width="28" height="1" />
    <rect x="194" y="173" width="28" height="1" />
    <rect x="67" y="174" width="29" height="12" />
    <rect x="194" y="174" width="29" height="12" />
    <rect x="67" y="186" width="26" height="8" />
    <rect x="197" y="186" width="26" height="8" />
    <rect x="64" y="194" width="29" height="10" />
    <rect x="197" y="194" width="29" height="10" />
    <rect x="64" y="204" width="26" height="9" />
    <rect x="200" y="204" width="26" height="9" />
    <rect x="62" y="213" width="28" height="4" />
    <rect x="200" y="213" width="28" height="5" />
    <rect x="61" y="217" width="29" height="1" />
    <rect x="58" y="218" width="7" height="1" />
    <rect x="87" y="218" width="9" height="1" />
    <rect x="194" y="218" width="6" height="1" />
    <rect x="226" y="218" width="6" height="1" />
    <rect x="95" y="219" width="1" height="22" />
    <rect x="194" y="219" width="1" height="22" />
    <rect x="232" y="219" width="1" height="22" />
    <rect x="57" y="220" width="1" height="20" />
    <rect x="58" y="241" width="37" height="1" />
    <rect x="195" y="241" width="37" height="1" />
  </g>
  <g id="dark-accents" fill="#22242b">
    <rect x="21" y="21" width="16" height="2" />
    <rect x="253" y="21" width="16" height="1" />
    <rect x="253" y="22" width="17" height="5" />
    <rect x="20" y="23" width="17" height="8" />
    <rect x="253" y="27" width="16" height="2" />
    <rect x="253" y="29" width="17" height="2" />
    <rect x="20" y="31" width="27" height="7" />
    <rect x="243" y="31" width="27" height="3" />
    <rect x="242" y="34" width="28" height="2" />
    <rect x="242" y="36" width="27" height="1" />
    <rect x="243" y="37" width="26" height="1" />
    <rect x="28" y="38" width="19" height="1" />
    <rect x="242" y="38" width="20" height="1" />
    <rect x="29" y="39" width="19" height="1" />
    <rect x="242" y="39" width="19" height="1" />
    <rect x="29" y="40" width="232" height="8" />
    <rect x="38" y="48" width="214" height="9" />
    <rect x="131" y="70" width="28" height="43" />
    <rect x="65" y="218" width="22" height="1" />
    <rect x="200" y="218" width="26" height="1" />
    <rect x="58" y="219" width="37" height="22" />
    <rect x="195" y="219" width="37" height="22" />
  </g>
  </g>
</svg>
